{"title":"Rev S03E03 Xvid RB58.avi","uid":9918104,"size":305258636,"categoryP":"video","categoryS":"tv_shows","magnet":"?xt=urn:btih:3db2cd20e2856a581ee071ad3e05b416177d6a5c&amp;dn=Rev+S03E03+Xvid+RB58.avi&amp;tr=udp%3A%2F%2Ftracker.openbittorrent.com%3A80&amp;tr=udp%3A%2F%2Fopen.demonii.com%3A1337&amp;tr=udp%3A%2F%2Ftracker.coppersurfer.tk%3A6969&amp;tr=udp%3A%2F%2Fexodus.desync.com%3A6969","seeders":2,"leechers":0,"uploader":"RedBaron58","files":1,"time":1396970700,"description":"Rev Series 3 Episode 3 BBC Comedy Xvid\n &lt;a href=&quot;\nhttp://www.imdb.com/title/tt1588221/&quot; rel=&quot;nofollow&quot; target=&quot;_NEW&quot;&gt;\nhttp://www.imdb.com/title/tt1588221/&lt;/a&gt; \n\n\nPlease be patient My upload speed is limited, but I am online most the time and during the night.\nThank you for your kind comments and thumbs ups on my other torrents, your feedback is welcome.\n\n\nAbout the Episode:\nAdam is intrigued when local artist Mike Tobin offers to make a Â£60,000 donation to St Saviour's, \nproviding a solution to his financial problems. \nWhat could possibly go wrong? Meanwhile, he ropes in Ellie to help him in his campaign against \nlitter louts. \nDexter Fletcher guest stars in an episode of the comedy written by leading man Tom Hollander\n\n\nI hope you enjoy.\n\n\nTechnical:\n\nGeneral\nComplete name                            : G:Rev S03E03 Xvid RB58.avi\nFormat                                   : AVI\nFormat/Info                              : Audio Video Interleave\nFile size                                : 291 MiB\nDuration                                 : 28mn 19s\nOverall bit rate                         : 1 437 Kbps\n\nVideo\nID                                       : 0\nFormat                                   : MPEG-4 Visual\nFormat profile                           : Advanced Simple@L4\nFormat settings, BVOP                    : 2\nFormat settings, QPel                    : No\nFormat settings, GMC                     : No warppoints\nFormat settings, Matrix                  : Default (H.263)\nCodec ID                                 : DIVX\nCodec ID/Info                            : Project Mayo\nCodec ID/Hint                            : DivX 4\nDuration                                 : 28mn 19s\nBit rate                                 : 1 294 Kbps\nWidth                                    : 704 pixels\nHeight                                   : 396 pixels\nDisplay aspect ratio                     : 16:9\nFrame rate                               : 25.000 fps\nColor space                              : YUV\nChroma subsampling                       : 4:2:0\nBit depth                                : 8 bits\nScan type                                : Progressive\nCompression mode                         : Lossy\nBits/(Pixel*Frame)                       : 0.186\nStream size                              : 262 MiB (90%)\nWriting library                          : XviD 64\n\nAudio\nID                                       : 1\nFormat                                   : MPEG Audio\nFormat version                           : Version 1\nFormat profile                           : Layer 3\nCodec ID                                 : 55\nCodec ID/Hint                            : MP3\nDuration                                 : 28mn 19s\nBit rate mode                            : Constant\nBit rate                                 : 128 Kbps\nChannel(s)                               : 2 channels\nSampling rate                            : 48.0 KHz\nCompression mode                         : Lossy\nStream size                              : 25.9 MiB (9%)\nAlignment                                : Aligned on interleaves\nInterleave, duration                     : 24 ms (0.60 video frame)","torrent":{"xt":"urn:btih:3db2cd20e2856a581ee071ad3e05b416177d6a5c","amp;dn":"Rev+S03E03+Xvid+RB58.avi","amp;tr":["udp%3A%2F%2Ftracker.openbittorrent.com%3A80","udp%3A%2F%2Fopen.demonii.com%3A1337","udp%3A%2F%2Ftracker.coppersurfer.tk%3A6969","udp%3A%2F%2Fexodus.desync.com%3A6969"],"infoHash":"3db2cd20e2856a581ee071ad3e05b416177d6a5c","infoHashBuffer":{"type":"Buffer","data":[61,178,205,32,226,133,106,88,30,224,113,173,62,5,180,22,23,125,106,92]},"announce":[],"urlList":[]}}